<svg width="96" height="15" viewBox="0 0 96 15" fill="none" xmlns="http://www.w3.org/2000/svg">
<g id="Group 2">
<path id="Icon" d="M7.41473 1.86809C7.59401 1.36587 7.68365 1.11477 7.81621 1.04517C7.93093 0.984942 8.06907 0.984942 8.18379 1.04517C8.31635 1.11477 8.40599 1.36587 8.58527 1.86808L9.77051 5.18822C9.82153 5.33116 9.84704 5.40263 9.89302 5.45585C9.93363 5.50286 9.98543 5.53951 10.0439 5.56259C10.1101 5.58872 10.1878 5.59026 10.3432 5.59334L13.9523 5.66496C14.4982 5.67579 14.7712 5.6812 14.8801 5.78245C14.9744 5.87008 15.0171 5.99801 14.9937 6.12286C14.9667 6.26712 14.7491 6.42773 14.314 6.74894L11.4374 8.87252C11.3135 8.96394 11.2516 9.00965 11.2138 9.06867C11.1805 9.12081 11.1607 9.1801 11.1562 9.24138C11.1512 9.31075 11.1737 9.38317 11.2187 9.52801L12.264 12.8924C12.4221 13.4013 12.5012 13.6558 12.4359 13.7879C12.3795 13.9023 12.2677 13.9814 12.1386 13.9983C11.9893 14.0179 11.7652 13.866 11.317 13.5624L8.35392 11.5547C8.22635 11.4682 8.16257 11.425 8.09325 11.4083C8.03201 11.3935 7.96799 11.3935 7.90675 11.4083C7.83743 11.425 7.77365 11.4682 7.64609 11.5547L4.683 13.5624C4.23479 13.866 4.01069 14.0179 3.86144 13.9983C3.73227 13.9814 3.62051 13.9023 3.56406 13.7879C3.49883 13.6558 3.57789 13.4013 3.73601 12.8924L4.78135 9.52801C4.82635 9.38317 4.84885 9.31075 4.84378 9.24138C4.83931 9.1801 4.81952 9.12081 4.78615 9.06867C4.74837 9.00965 4.68645 8.96394 4.56261 8.87252L1.68599 6.74895C1.25086 6.42773 1.0333 6.26712 1.00629 6.12286C0.982909 5.99801 1.0256 5.87008 1.11988 5.78245C1.22881 5.6812 1.50178 5.67579 2.04771 5.66496L5.65685 5.59334C5.81222 5.59026 5.88991 5.58872 5.9561 5.56259C6.01457 5.53951 6.06637 5.50286 6.10698 5.45585C6.15296 5.40263 6.17847 5.33116 6.22949 5.18822L7.41473 1.86809Z" fill="#FFE600" stroke="black" stroke-linecap="round" stroke-linejoin="round"/>
<path id="Icon_2" d="M27.4147 1.86809C27.594 1.36587 27.6837 1.11477 27.8162 1.04517C27.9309 0.984942 28.0691 0.984942 28.1838 1.04517C28.3163 1.11477 28.406 1.36587 28.5853 1.86808L29.7705 5.18822C29.8215 5.33116 29.847 5.40263 29.893 5.45585C29.9336 5.50286 29.9854 5.53951 30.0439 5.56259C30.1101 5.58872 30.1878 5.59026 30.3432 5.59334L33.9523 5.66496C34.4982 5.67579 34.7712 5.6812 34.8801 5.78245C34.9744 5.87008 35.0171 5.99801 34.9937 6.12286C34.9667 6.26712 34.7491 6.42773 34.314 6.74894L31.4374 8.87252C31.3135 8.96394 31.2516 9.00965 31.2138 9.06867C31.1805 9.12081 31.1607 9.1801 31.1562 9.24138C31.1512 9.31075 31.1737 9.38317 31.2187 9.52801L32.264 12.8924C32.4221 13.4013 32.5012 13.6558 32.4359 13.7879C32.3795 13.9023 32.2677 13.9814 32.1386 13.9983C31.9893 14.0179 31.7652 13.866 31.317 13.5624L28.3539 11.5547C28.2264 11.4682 28.1626 11.425 28.0932 11.4083C28.032 11.3935 27.968 11.3935 27.9068 11.4083C27.8374 11.425 27.7736 11.4682 27.6461 11.5547L24.683 13.5624C24.2348 13.866 24.0107 14.0179 23.8614 13.9983C23.7323 13.9814 23.6205 13.9023 23.5641 13.7879C23.4988 13.6558 23.5779 13.4013 23.736 12.8924L24.7813 9.52801C24.8263 9.38317 24.8488 9.31075 24.8438 9.24138C24.8393 9.1801 24.8195 9.12081 24.7862 9.06867C24.7484 9.00965 24.6865 8.96394 24.5626 8.87252L21.686 6.74895C21.2509 6.42773 21.0333 6.26712 21.0063 6.12286C20.9829 5.99801 21.0256 5.87008 21.1199 5.78245C21.2288 5.6812 21.5018 5.67579 22.0477 5.66496L25.6568 5.59334C25.8122 5.59026 25.8899 5.58872 25.9561 5.56259C26.0146 5.53951 26.0664 5.50286 26.107 5.45585C26.153 5.40263 26.1785 5.33116 26.2295 5.18822L27.4147 1.86809Z" fill="#FFE600" stroke="black" stroke-linecap="round" stroke-linejoin="round"/>
<path id="Icon_3" d="M47.4147 1.86809C47.594 1.36587 47.6837 1.11477 47.8162 1.04517C47.9309 0.984942 48.0691 0.984942 48.1838 1.04517C48.3163 1.11477 48.406 1.36587 48.5853 1.86808L49.7705 5.18822C49.8215 5.33116 49.847 5.40263 49.893 5.45585C49.9336 5.50286 49.9854 5.53951 50.0439 5.56259C50.1101 5.58872 50.1878 5.59026 50.3432 5.59334L53.9523 5.66496C54.4982 5.67579 54.7712 5.6812 54.8801 5.78245C54.9744 5.87008 55.0171 5.99801 54.9937 6.12286C54.9667 6.26712 54.7491 6.42773 54.314 6.74894L51.4374 8.87252C51.3135 8.96394 51.2516 9.00965 51.2138 9.06867C51.1805 9.12081 51.1607 9.1801 51.1562 9.24138C51.1512 9.31075 51.1737 9.38317 51.2187 9.52801L52.264 12.8924C52.4221 13.4013 52.5012 13.6558 52.4359 13.7879C52.3795 13.9023 52.2677 13.9814 52.1386 13.9983C51.9893 14.0179 51.7652 13.866 51.317 13.5624L48.3539 11.5547C48.2264 11.4682 48.1626 11.425 48.0932 11.4083C48.032 11.3935 47.968 11.3935 47.9068 11.4083C47.8374 11.425 47.7736 11.4682 47.6461 11.5547L44.683 13.5624C44.2348 13.866 44.0107 14.0179 43.8614 13.9983C43.7323 13.9814 43.6205 13.9023 43.5641 13.7879C43.4988 13.6558 43.5779 13.4013 43.736 12.8924L44.7813 9.52801C44.8263 9.38317 44.8488 9.31075 44.8438 9.24138C44.8393 9.1801 44.8195 9.12081 44.7862 9.06867C44.7484 9.00965 44.6865 8.96394 44.5626 8.87252L41.686 6.74895C41.2509 6.42773 41.0333 6.26712 41.0063 6.12286C40.9829 5.99801 41.0256 5.87008 41.1199 5.78245C41.2288 5.6812 41.5018 5.67579 42.0477 5.66496L45.6568 5.59334C45.8122 5.59026 45.8899 5.58872 45.9561 5.56259C46.0146 5.53951 46.0664 5.50286 46.107 5.45585C46.153 5.40263 46.1785 5.33116 46.2295 5.18822L47.4147 1.86809Z" fill="#FFE600" stroke="black" stroke-linecap="round" stroke-linejoin="round"/>
<path id="Icon_4" d="M67.4147 1.86809C67.594 1.36587 67.6837 1.11477 67.8162 1.04517C67.9309 0.984942 68.0691 0.984942 68.1838 1.04517C68.3163 1.11477 68.406 1.36587 68.5853 1.86808L69.7705 5.18822C69.8215 5.33116 69.847 5.40263 69.893 5.45585C69.9336 5.50286 69.9854 5.53951 70.0439 5.56259C70.1101 5.58872 70.1878 5.59026 70.3432 5.59334L73.9523 5.66496C74.4982 5.67579 74.7712 5.6812 74.8801 5.78245C74.9744 5.87008 75.0171 5.99801 74.9937 6.12286C74.9667 6.26712 74.7491 6.42773 74.314 6.74894L71.4374 8.87252C71.3135 8.96394 71.2516 9.00965 71.2138 9.06867C71.1805 9.12081 71.1607 9.1801 71.1562 9.24138C71.1512 9.31075 71.1737 9.38317 71.2187 9.52801L72.264 12.8924C72.4221 13.4013 72.5012 13.6558 72.4359 13.7879C72.3795 13.9023 72.2677 13.9814 72.1386 13.9983C71.9893 14.0179 71.7652 13.866 71.317 13.5624L68.3539 11.5547C68.2264 11.4682 68.1626 11.425 68.0932 11.4083C68.032 11.3935 67.968 11.3935 67.9068 11.4083C67.8374 11.425 67.7736 11.4682 67.6461 11.5547L64.683 13.5624C64.2348 13.866 64.0107 14.0179 63.8614 13.9983C63.7323 13.9814 63.6205 13.9023 63.5641 13.7879C63.4988 13.6558 63.5779 13.4013 63.736 12.8924L64.7813 9.52801C64.8263 9.38317 64.8488 9.31075 64.8438 9.24138C64.8393 9.1801 64.8195 9.12081 64.7862 9.06867C64.7484 9.00965 64.6865 8.96394 64.5626 8.87252L61.686 6.74895C61.2509 6.42773 61.0333 6.26712 61.0063 6.12286C60.9829 5.99801 61.0256 5.87008 61.1199 5.78245C61.2288 5.6812 61.5018 5.67579 62.0477 5.66496L65.6568 5.59334C65.8122 5.59026 65.8899 5.58872 65.9561 5.56259C66.0146 5.53951 66.0664 5.50286 66.107 5.45585C66.153 5.40263 66.1785 5.33116 66.2295 5.18822L67.4147 1.86809Z" fill="#FFE600" stroke="black" stroke-linecap="round" stroke-linejoin="round"/>
<path id="Icon_5" d="M87.4147 1.86809C87.594 1.36587 87.6837 1.11477 87.8162 1.04517C87.9309 0.984942 88.0691 0.984942 88.1838 1.04517C88.3163 1.11477 88.406 1.36587 88.5853 1.86808L89.7705 5.18822C89.8215 5.33116 89.847 5.40263 89.893 5.45585C89.9336 5.50286 89.9854 5.53951 90.0439 5.56259C90.1101 5.58872 90.1878 5.59026 90.3432 5.59334L93.9523 5.66496C94.4982 5.67579 94.7712 5.6812 94.8801 5.78245C94.9744 5.87008 95.0171 5.99801 94.9937 6.12286C94.9667 6.26712 94.7491 6.42773 94.314 6.74894L91.4374 8.87252C91.3135 8.96394 91.2516 9.00965 91.2138 9.06867C91.1805 9.12081 91.1607 9.1801 91.1562 9.24138C91.1512 9.31075 91.1737 9.38317 91.2187 9.52801L92.264 12.8924C92.4221 13.4013 92.5012 13.6558 92.4359 13.7879C92.3795 13.9023 92.2677 13.9814 92.1386 13.9983C91.9893 14.0179 91.7652 13.866 91.317 13.5624L88.3539 11.5547C88.2264 11.4682 88.1626 11.425 88.0932 11.4083C88.032 11.3935 87.968 11.3935 87.9068 11.4083C87.8374 11.425 87.7736 11.4682 87.6461 11.5547L84.683 13.5624C84.2348 13.866 84.0107 14.0179 83.8614 13.9983C83.7323 13.9814 83.6205 13.9023 83.5641 13.7879C83.4988 13.6558 83.5779 13.4013 83.736 12.8924L84.7813 9.52801C84.8263 9.38317 84.8488 9.31075 84.8438 9.24138C84.8393 9.1801 84.8195 9.12081 84.7862 9.06867C84.7484 9.00965 84.6865 8.96394 84.5626 8.87252L81.686 6.74895C81.2509 6.42773 81.0333 6.26712 81.0063 6.12286C80.9829 5.99801 81.0256 5.87008 81.1199 5.78245C81.2288 5.6812 81.5018 5.67579 82.0477 5.66496L85.6568 5.59334C85.8122 5.59026 85.8899 5.58872 85.9561 5.56259C86.0146 5.53951 86.0664 5.50286 86.107 5.45585C86.153 5.40263 86.1785 5.33116 86.2295 5.18822L87.4147 1.86809Z" fill="#FFE600" stroke="black" stroke-linecap="round" stroke-linejoin="round"/>
</g>
</svg>
