<svg width="16" height="15" viewBox="0 0 16 15" fill="none" xmlns="http://www.w3.org/2000/svg">
<path d="M7.41473 1.86809C7.59401 1.36587 7.68365 1.11477 7.81621 1.04517C7.93093 0.984942 8.06907 0.984942 8.18379 1.04517C8.31635 1.11477 8.40599 1.36587 8.58527 1.86808L9.77051 5.18822C9.82153 5.33116 9.84704 5.40263 9.89302 5.45585C9.93363 5.50286 9.98543 5.53951 10.0439 5.56259C10.1101 5.58872 10.1878 5.59026 10.3432 5.59334L13.9523 5.66495C14.4982 5.67579 14.7712 5.6812 14.8801 5.78245C14.9744 5.87008 15.0171 5.99801 14.9937 6.12286C14.9667 6.26712 14.7491 6.42773 14.314 6.74894L11.4374 8.87252C11.3135 8.96394 11.2516 9.00965 11.2138 9.06867C11.1805 9.12081 11.1607 9.1801 11.1562 9.24138C11.1512 9.31075 11.1737 9.38317 11.2187 9.52801L12.264 12.8924C12.4221 13.4013 12.5012 13.6558 12.4359 13.7879C12.3795 13.9023 12.2677 13.9814 12.1386 13.9983C11.9893 14.0179 11.7652 13.866 11.317 13.5624L8.35392 11.5547C8.22635 11.4682 8.16257 11.425 8.09325 11.4083C8.03201 11.3935 7.96799 11.3935 7.90675 11.4083C7.83743 11.425 7.77365 11.4682 7.64609 11.5547L4.683 13.5624C4.23479 13.866 4.01069 14.0179 3.86144 13.9983C3.73227 13.9814 3.62051 13.9023 3.56406 13.7879C3.49883 13.6558 3.57789 13.4013 3.73601 12.8924L4.78135 9.52801C4.82635 9.38317 4.84885 9.31075 4.84378 9.24138C4.83931 9.1801 4.81952 9.12081 4.78615 9.06867C4.74837 9.00965 4.68645 8.96394 4.56261 8.87252L1.68599 6.74894C1.25086 6.42773 1.0333 6.26712 1.00629 6.12286C0.982909 5.99801 1.0256 5.87008 1.11988 5.78245C1.22881 5.6812 1.50178 5.67579 2.04771 5.66496L5.65685 5.59334C5.81222 5.59026 5.88991 5.58872 5.9561 5.56259C6.01457 5.53951 6.06637 5.50286 6.10698 5.45585C6.15296 5.40263 6.17847 5.33116 6.22949 5.18822L7.41473 1.86809Z" fill="#FFE600" stroke="black" stroke-linecap="round" stroke-linejoin="round"/>
</svg>
