<svg width="14" height="13" viewBox="0 0 14 13" fill="none" xmlns="http://www.w3.org/2000/svg">
<path d="M6.41473 0.868086C6.59401 0.365873 6.68365 0.114767 6.81621 0.0451731C6.93093 -0.0150577 7.06907 -0.0150577 7.18379 0.0451731C7.31635 0.114767 7.40599 0.365873 7.58527 0.868085L8.77051 4.18822C8.82153 4.33116 8.84704 4.40263 8.89302 4.45585C8.93363 4.50286 8.98543 4.53951 9.0439 4.56259C9.11009 4.58872 9.18778 4.59026 9.34315 4.59334L12.9523 4.66496C13.4982 4.67579 13.7712 4.6812 13.8801 4.78245C13.9744 4.87008 14.0171 4.99801 13.9937 5.12286C13.9667 5.26712 13.7491 5.42773 13.314 5.74894L10.4374 7.87252C10.3135 7.96394 10.2516 8.00965 10.2138 8.06867C10.1805 8.12081 10.1607 8.1801 10.1562 8.24138C10.1512 8.31075 10.1737 8.38317 10.2187 8.52801L11.264 11.8924C11.4221 12.4013 11.5012 12.6558 11.4359 12.7879C11.3795 12.9023 11.2677 12.9814 11.1386 12.9983C10.9893 13.0179 10.7652 12.866 10.317 12.5624L7.35392 10.5547C7.22635 10.4682 7.16257 10.425 7.09325 10.4083C7.03201 10.3935 6.96799 10.3935 6.90675 10.4083C6.83743 10.425 6.77365 10.4682 6.64609 10.5547L3.683 12.5624C3.23479 12.866 3.01069 13.0179 2.86144 12.9983C2.73227 12.9814 2.62051 12.9023 2.56406 12.7879C2.49883 12.6558 2.57789 12.4013 2.73601 11.8924L3.78135 8.52801C3.82635 8.38317 3.84885 8.31075 3.84378 8.24138C3.83931 8.1801 3.81952 8.12081 3.78615 8.06867C3.74837 8.00965 3.68645 7.96394 3.56261 7.87252L0.685988 5.74895C0.250862 5.42773 0.0332995 5.26712 0.00628703 5.12286C-0.0170912 4.99801 0.0255972 4.87008 0.119878 4.78245C0.228814 4.6812 0.501778 4.67579 1.04771 4.66496L4.65685 4.59334C4.81222 4.59026 4.88991 4.58872 4.9561 4.56259C5.01457 4.53951 5.06637 4.50286 5.10698 4.45585C5.15296 4.40263 5.17847 4.33116 5.22949 4.18822L6.41473 0.868086Z" fill="#FFE600"/>
</svg>
