<svg width="1440" height="873" viewBox="0 0 1440 873" fill="none" xmlns="http://www.w3.org/2000/svg">
<path d="M0 872.48L34.4 861.568C68.8 850.532 137.6 828.708 206.08 816.308C274.72 803.908 342.88 800.932 411.52 812.712C480 824.492 548.8 851.028 617.28 863.18C685.92 875.332 754.08 873.348 822.72 865.66C891.2 857.972 960 844.828 1028.48 828.088C1097.12 811.348 1165.28 791.012 1233.92 781.96C1302.4 772.908 1371.2 774.892 1405.6 776.008L1440 777V715H1405.6C1371.2 715 1302.4 715 1233.92 715C1165.28 715 1097.12 715 1028.48 715C960 715 891.2 715 822.72 715C754.08 715 685.92 715 617.28 715C548.8 715 480 715 411.52 715C342.88 715 274.72 715 206.08 715C137.6 715 68.8 715 34.4 715H0V872.48Z" fill="#8DC88D"/>
<rect width="1440" height="629" transform="translate(0 86)" fill="url(#paint0_linear_55_10)"/>
<path d="M0 40L34.4 41C68.8 42 137.6 44 206.08 39.7C274.72 35.3 342.88 24.7 411.52 20.5C480 16.3 548.8 18.7 617.28 18.8C685.92 19 754.08 17 822.72 22.5C891.2 28 960 41 1028.48 41.3C1097.12 41.7 1165.28 29.3 1233.92 20.3C1302.4 11.3 1371.2 5.69999 1405.6 2.79999L1440 0V87H1405.6C1371.2 87 1302.4 87 1233.92 87C1165.28 87 1097.12 87 1028.48 87C960 87 891.2 87 822.72 87C754.08 87 685.92 87 617.28 87C548.8 87 480 87 411.52 87C342.88 87 274.72 87 206.08 87C137.6 87 68.8 87 34.4 87H0V40Z" fill="#3E8B5A"/>
<defs>
<linearGradient id="paint0_linear_55_10" x1="720" y1="0" x2="720" y2="629" gradientUnits="userSpaceOnUse">
<stop stop-color="#3E8B5A"/>
<stop offset="1" stop-color="#8DC88D"/>
</linearGradient>
</defs>
</svg>
