<svg width="25" height="24" viewBox="0 0 25 24" fill="none" xmlns="http://www.w3.org/2000/svg">
<path d="M23.625 0.159302H1.375C1.01033 0.159302 0.660591 0.293484 0.402728 0.53233C0.144866 0.771176 0 1.09512 0 1.4329V22.042C0 22.2093 0.0355655 22.3749 0.104666 22.5294C0.173766 22.684 0.275048 22.8244 0.402728 22.9426C0.530409 23.0609 0.681988 23.1547 0.84881 23.2187C1.01563 23.2827 1.19443 23.3156 1.375 23.3156H13.35V14.3426H10.1V10.8691H13.35V8.26402C13.2827 7.65241 13.3606 7.03457 13.5784 6.45382C13.7962 5.87307 14.1485 5.34348 14.6106 4.9022C15.0727 4.46091 15.6335 4.11862 16.2535 3.89933C16.8736 3.68003 17.538 3.58905 18.2 3.63275C19.1729 3.62721 20.1454 3.6736 21.1125 3.77169V6.8978H19.125C17.55 6.8978 17.25 7.59249 17.25 8.59979V10.8344H21L20.5125 14.3078H17.25V23.3156H23.625C23.8056 23.3156 23.9844 23.2827 24.1512 23.2187C24.318 23.1547 24.4696 23.0609 24.5973 22.9426C24.725 22.8244 24.8262 22.684 24.8953 22.5294C24.9644 22.3749 25 22.2093 25 22.042V1.4329C25 1.26565 24.9644 1.10004 24.8953 0.945516C24.8262 0.790995 24.725 0.650595 24.5973 0.53233C24.4696 0.414066 24.318 0.320253 24.1512 0.256249C23.9844 0.192244 23.8056 0.159302 23.625 0.159302Z" fill="#F8F8F8"/>
</svg>
