<svg xmlns="http://www.w3.org/2000/svg" width="25" height="24" viewBox="0 0 25 24" fill="none">
  <path d="M19.175 4.16535C18.8783 4.16535 18.5883 4.24684 18.3416 4.3995C18.095 4.55217 17.9027 4.76916 17.7892 5.02304C17.6756 5.27691 17.6459 5.55627 17.7038 5.82578C17.7617 6.0953 17.9046 6.34286 18.1143 6.53717C18.3241 6.73148 18.5914 6.8638 18.8824 6.91741C19.1733 6.97102 19.4749 6.94351 19.749 6.83835C20.0231 6.73319 20.2574 6.55511 20.4222 6.32663C20.587 6.09815 20.675 5.82952 20.675 5.55473C20.675 5.18624 20.517 4.83285 20.2357 4.57229C19.9544 4.31173 19.5728 4.16535 19.175 4.16535ZM24.925 6.96727C24.9007 6.00662 24.7064 5.05618 24.35 4.15377C24.0322 3.38166 23.5375 2.68251 22.9 2.10443C22.281 1.51097 21.5245 1.05566 20.6875 0.772945C19.7158 0.432733 18.6886 0.248697 17.65 0.228771C16.325 0.159302 15.9 0.159302 12.5 0.159302C9.1 0.159302 8.675 0.159302 7.35 0.228771C6.31144 0.248697 5.28418 0.432733 4.3125 0.772945C3.4771 1.05852 2.72117 1.51344 2.1 2.10443C1.45928 2.67776 0.967721 3.37854 0.6625 4.15377C0.295201 5.05379 0.0965125 6.0053 0.0749999 6.96727C-6.98492e-08 8.19455 0 8.58821 0 11.7375C0 14.8867 -6.98492e-08 15.2804 0.0749999 16.5077C0.0965125 17.4697 0.295201 18.4212 0.6625 19.3212C0.967721 20.0964 1.45928 20.7972 2.1 21.3705C2.72117 21.9615 3.4771 22.4164 4.3125 22.702C5.28418 23.0422 6.31144 23.2262 7.35 23.2462C8.675 23.3156 9.1 23.3156 12.5 23.3156C15.9 23.3156 16.325 23.3156 17.65 23.2462C18.6886 23.2262 19.7158 23.0422 20.6875 22.702C21.5245 22.4193 22.281 21.964 22.9 21.3705C23.5403 20.7946 24.0354 20.0948 24.35 19.3212C24.7064 18.4188 24.9007 17.4683 24.925 16.5077C24.925 15.2804 25 14.8867 25 11.7375C25 8.58821 25 8.19455 24.925 6.96727ZM22.675 16.3687C22.6659 17.1037 22.5222 17.8319 22.25 18.5223C22.0504 19.0262 21.7298 19.4814 21.3125 19.8538C20.9071 20.2364 20.4165 20.5328 19.875 20.7221C19.1296 20.9743 18.3435 21.1074 17.55 21.1158C16.3 21.1737 15.8375 21.1853 12.55 21.1853C9.2625 21.1853 8.8 21.1853 7.55 21.1158C6.72611 21.1301 5.90574 21.0126 5.125 20.7684C4.60723 20.5694 4.13919 20.2738 3.75 19.9001C3.33511 19.5281 3.01855 19.0725 2.825 18.5686C2.51982 17.8683 2.35055 17.1236 2.325 16.3687C2.325 15.2109 2.25 14.7825 2.25 11.7375C2.25 8.69241 2.25 8.26402 2.325 7.1062C2.3306 6.35485 2.47869 5.61024 2.7625 4.90635C2.98256 4.41765 3.32033 3.98202 3.75 3.63275C4.12977 3.23466 4.59911 2.91849 5.125 2.7065C5.88694 2.45183 6.69 2.31872 7.5 2.31284C8.75 2.31284 9.2125 2.24337 12.5 2.24337C15.7875 2.24337 16.25 2.24337 17.5 2.31284C18.2935 2.32127 19.0796 2.45438 19.825 2.7065C20.393 2.90177 20.9029 3.21923 21.3125 3.63275C21.7221 3.98841 22.0422 4.42323 22.25 4.90635C22.5278 5.61139 22.6716 6.35568 22.675 7.1062C22.7375 8.26402 22.75 8.69241 22.75 11.7375C22.75 14.7825 22.7375 15.2109 22.675 16.3687ZM12.5 5.79787C11.2323 5.80016 9.9937 6.15046 8.94082 6.8045C7.88793 7.45854 7.06797 8.38698 6.58454 9.4725C6.10111 10.558 5.9759 11.7519 6.22474 12.9033C6.47358 14.0547 7.0853 15.112 7.98259 15.9415C8.8799 16.771 10.0225 17.3355 11.2661 17.5638C12.5096 17.792 13.7983 17.6737 14.9693 17.2238C16.1403 16.7739 17.1411 16.0126 17.8452 15.0361C18.5492 14.0596 18.925 12.9117 18.925 11.7375C18.9267 10.9561 18.7615 10.1821 18.439 9.46C18.1166 8.73792 17.6432 8.08202 17.0461 7.53002C16.449 6.97802 15.7399 6.54082 14.9597 6.24355C14.1796 5.94628 13.3436 5.79482 12.5 5.79787ZM12.5 15.593C11.6767 15.593 10.872 15.3669 10.1874 14.9432C9.50292 14.5196 8.9694 13.9174 8.65435 13.2129C8.3393 12.5084 8.25687 11.7332 8.41748 10.9853C8.57809 10.2374 8.97453 9.55041 9.55667 9.0112C10.1388 8.472 10.8805 8.10479 11.6879 7.95602C12.4954 7.80726 13.3323 7.88361 14.0929 8.17543C14.8535 8.46724 15.5036 8.96142 15.961 9.59545C16.4184 10.2295 16.6625 10.9749 16.6625 11.7375C16.6625 12.2438 16.5548 12.7451 16.3456 13.2129C16.1365 13.6807 15.8299 14.1057 15.4433 14.4637C15.0568 14.8218 14.5979 15.1058 14.0929 15.2995C13.5879 15.4933 13.0466 15.593 12.5 15.593Z" fill="#F8F8F8"/>
</svg>