<svg xmlns="http://www.w3.org/2000/svg" width="25" height="24" viewBox="0 0 25 24" fill="none">
  <path d="M23.1514 0.159464H1.84859C1.60913 0.156402 1.37135 0.1968 1.14885 0.278351C0.926346 0.359902 0.72347 0.481009 0.551808 0.634755C0.380145 0.788501 0.24306 0.971874 0.14838 1.1744C0.0537002 1.37693 0.00328017 1.59465 0 1.81512V21.6598C0.00328017 21.8803 0.0537002 22.098 0.14838 22.3005C0.24306 22.5031 0.380145 22.6864 0.551808 22.8402C0.72347 22.9939 0.926346 23.115 1.14885 23.1966C1.37135 23.2781 1.60913 23.3185 1.84859 23.3155H23.1514C23.3909 23.3185 23.6286 23.2781 23.8511 23.1966C24.0737 23.115 24.2765 22.9939 24.4482 22.8402C24.6199 22.6864 24.7569 22.5031 24.8516 22.3005C24.9463 22.098 24.9967 21.8803 25 21.6598V1.81512C24.9967 1.59465 24.9463 1.37693 24.8516 1.1744C24.7569 0.971874 24.6199 0.788501 24.4482 0.634755C24.2765 0.481009 24.0737 0.359902 23.8511 0.278351C23.6286 0.1968 23.3909 0.156402 23.1514 0.159464ZM7.583 19.541H3.81036V9.12084H7.583V19.541ZM5.69668 7.66201C5.17639 7.66201 4.6774 7.47172 4.3095 7.133C3.9416 6.79428 3.73491 6.33487 3.73491 5.85584C3.73491 5.37682 3.9416 4.91741 4.3095 4.57869C4.6774 4.23997 5.17639 4.04967 5.69668 4.04967C5.97296 4.02083 6.25274 4.04603 6.5177 4.12364C6.78266 4.20124 7.02683 4.3295 7.23423 4.50001C7.44162 4.67053 7.60755 4.87945 7.72117 5.11309C7.83478 5.34674 7.89351 5.59985 7.89351 5.85584C7.89351 6.11184 7.83478 6.36494 7.72117 6.59859C7.60755 6.83224 7.44162 7.04116 7.23423 7.21167C7.02683 7.38218 6.78266 7.51044 6.5177 7.58805C6.25274 7.66566 5.97296 7.69086 5.69668 7.66201ZM21.1896 19.541H17.417V13.9489C17.417 12.5479 16.8763 11.6333 15.5055 11.6333C15.0813 11.6361 14.6682 11.7586 14.322 11.9843C13.9757 12.2099 13.7129 12.5279 13.5689 12.8953C13.4705 13.1674 13.4279 13.454 13.4432 13.7405V19.5295H9.67052C9.67052 19.5295 9.67052 10.0587 9.67052 9.10926H13.4432V10.5797C13.7859 10.0322 14.2843 9.58109 14.8849 9.27506C15.4854 8.96904 16.1652 8.81964 16.8511 8.84297C19.3662 8.84297 21.1896 10.3365 21.1896 13.5436V19.541Z" fill="#F8F8F8"/>
</svg>