<svg width="1440" height="158" viewBox="0 0 1440 158" fill="none" xmlns="http://www.w3.org/2000/svg">
<path d="M0 157.48L34.4 146.568C68.8 135.532 137.6 113.708 206.08 101.308C274.72 88.908 342.88 85.932 411.52 97.712C480 109.492 548.8 136.028 617.28 148.18C685.92 160.332 754.08 158.348 822.72 150.66C891.2 142.972 960 129.828 1028.48 113.088C1097.12 96.348 1165.28 76.012 1233.92 66.96C1302.4 57.908 1371.2 59.892 1405.6 61.008L1440 62V0H1405.6C1371.2 0 1302.4 0 1233.92 0C1165.28 0 1097.12 0 1028.48 0C960 0 891.2 0 822.72 0C754.08 0 685.92 0 617.28 0C548.8 0 480 0 411.52 0C342.88 0 274.72 0 206.08 0C137.6 0 68.8 0 34.4 0H0V157.48Z" fill="#8DC88D"/>
</svg>
