<svg xmlns="http://www.w3.org/2000/svg" width="25" height="24" viewBox="0 0 25 24" fill="none">
  <path d="M25 2.78607C24.0604 3.24986 23.0668 3.55646 22.05 3.69632C23.1227 2.96715 23.9266 1.82003 24.3125 0.467761C23.3044 1.15054 22.201 1.6316 21.05 1.89003C20.2807 0.940769 19.2562 0.308888 18.1373 0.0934918C17.0183 -0.121904 15.8682 0.0913683 14.8672 0.699861C13.8663 1.30835 13.0712 2.27765 12.6066 3.45572C12.1419 4.6338 12.0341 5.95402 12.3 7.20933C10.2618 7.09203 8.26805 6.48817 6.44832 5.43699C4.62859 4.3858 3.02356 2.91079 1.7375 1.10778C1.28642 2.00405 1.0494 3.01907 1.05 4.05189C1.0484 5.01104 1.25527 5.95577 1.65219 6.80194C2.04912 7.64812 2.62377 8.3695 3.325 8.90184C2.50997 8.87661 1.71236 8.62776 1 8.17648V8.24759C1.00611 9.59149 1.41999 10.8917 2.17164 11.9284C2.92329 12.965 3.96657 13.6745 5.125 13.9367C4.67907 14.0911 4.21609 14.1725 3.75 14.1785C3.42736 14.1742 3.10553 14.1409 2.7875 14.0789C3.11739 15.235 3.75578 16.2452 4.61384 16.9692C5.47191 17.6932 6.50697 18.0948 7.575 18.1182C5.7715 19.7328 3.54485 20.614 1.25 20.6214C0.832169 20.6229 0.41467 20.5944 0 20.536C2.34304 22.2573 5.07352 23.1711 7.8625 23.1672C9.78712 23.19 11.6964 22.7761 13.4789 21.9499C15.2614 21.1236 16.8813 19.9015 18.244 18.355C19.6067 16.8084 20.685 14.9684 21.4157 12.9424C22.1464 10.9164 22.515 8.745 22.5 6.55509C22.5 6.3133 22.5 6.05729 22.5 5.80128C23.4809 4.96898 24.3268 3.94867 25 2.78607Z" fill="#F8F8F8"/>
</svg>