<svg width="1440" height="86" viewBox="0 0 1440 86" fill="none" xmlns="http://www.w3.org/2000/svg">
<path d="M0 40L34.4 41C68.8 42 137.6 44 206.08 39.7C274.72 35.3 342.88 24.7 411.52 20.5C480 16.3 548.8 18.7 617.28 18.8C685.92 19 754.08 17 822.72 22.5C891.2 28 960 41 1028.48 41.3C1097.12 41.7 1165.28 29.3 1233.92 20.3C1302.4 11.3 1371.2 5.69999 1405.6 2.79999L1440 0V87H1405.6C1371.2 87 1302.4 87 1233.92 87C1165.28 87 1097.12 87 1028.48 87C960 87 891.2 87 822.72 87C754.08 87 685.92 87 617.28 87C548.8 87 480 87 411.52 87C342.88 87 274.72 87 206.08 87C137.6 87 68.8 87 34.4 87H0V40Z" fill="#3E8B5A"/>
</svg>
